STARTFONT 2.1
FONT -jmk-Neep-Medium-R-Normal--15-140-75-75-C-80-US-ASCII
SIZE 15 75 75
FONTBOUNDINGBOX 8 15 0 -3
STARTPROPERTIES 29
FONTNAME_REGISTRY ""
FOUNDRY "jmk"
FAMILY_NAME "Neep"
WEIGHT_NAME "Medium"
SLANT "R"
SETWIDTH_NAME "Normal"
ADD_STYLE_NAME ""
PIXEL_SIZE 15
POINT_SIZE 140
RESOLUTION_X 75
RESOLUTION_Y 75
SPACING "C"
AVERAGE_WIDTH 80
CHARSET_REGISTRY "US"
CHARSET_ENCODING "ASCII"
COPYRIGHT "Jim Knoble <jmknoble@pobox.com>"
WEIGHT 100
RESOLUTION 75
X_HEIGHT 7
FIGURE_WIDTH 8
QUAD_WIDTH 8
FONT_ASCENT 12
FONT_DESCENT 3
_XMBDFED_INFO "Edited with xmbdfed 3.7."
RELATIVE_WEIGHT 50
RELATIVE_SETWIDTH 50
CAP_HEIGHT 10
UNDERLINE_POSITION -2
UNDERLINE_THICKNESS 1
ENDPROPERTIES
CHARS 38
STARTCHAR solid box
ENCODING 0
SWIDTH 512 0
DWIDTH 8 0
BBX 8 15 0 -3
BITMAP
00
7E
7E
7E
7E
7E
7E
7E
7E
7E
7E
7E
7E
7E
00
ENDCHAR
STARTCHAR diamond
ENCODING 1
SWIDTH 512 0
DWIDTH 8 0
BBX 8 15 0 -3
BITMAP
00
00
00
00
08
1C
3E
7F
3E
1C
08
00
00
00
00
ENDCHAR
STARTCHAR dithered box
ENCODING 2
SWIDTH 512 0
DWIDTH 8 0
BBX 8 15 0 -3
BITMAP
00
55
AA
55
AA
55
AA
55
AA
55
AA
55
AA
55
AA
ENDCHAR
STARTCHAR horizontal tab visible control
ENCODING 3
SWIDTH 512 0
DWIDTH 8 0
BBX 8 15 0 -3
BITMAP
00
44
44
7C
44
44
44
00
1F
04
04
04
04
04
00
ENDCHAR
STARTCHAR form feed visible control
ENCODING 4
SWIDTH 512 0
DWIDTH 8 0
BBX 8 15 0 -3
BITMAP
00
7C
40
78
40
40
40
00
1F
10
1E
10
10
10
00
ENDCHAR
STARTCHAR carriage return visible control
ENCODING 5
SWIDTH 512 0
DWIDTH 8 0
BBX 8 15 0 -3
BITMAP
00
38
44
40
40
44
38
00
1E
11
11
1E
12
11
00
ENDCHAR
STARTCHAR line feed visible control
ENCODING 6
SWIDTH 512 0
DWIDTH 8 0
BBX 8 15 0 -3
BITMAP
00
40
40
40
40
40
7C
00
1F
10
1E
10
10
10
00
ENDCHAR
STARTCHAR degree sign
ENCODING 7
SWIDTH 512 0
DWIDTH 8 0
BBX 8 15 0 -3
BITMAP
00
00
38
44
44
44
38
00
00
00
00
00
00
00
00
ENDCHAR
STARTCHAR plus-minus-sign
ENCODING 8
SWIDTH 512 0
DWIDTH 8 0
BBX 8 15 0 -3
BITMAP
00
00
00
00
08
08
08
7F
08
08
08
00
7F
00
00
ENDCHAR
STARTCHAR null visible control
ENCODING 9
SWIDTH 512 0
DWIDTH 8 0
BBX 8 15 0 -3
BITMAP
00
44
64
54
54
4C
44
00
10
10
10
10
10
1F
00
ENDCHAR
STARTCHAR vertical tab visible control
ENCODING 10
SWIDTH 512 0
DWIDTH 8 0
BBX 8 15 0 -3
BITMAP
00
44
44
44
28
28
10
00
1F
04
04
04
04
04
00
ENDCHAR
STARTCHAR box drawing lower right corner
ENCODING 11
SWIDTH 512 0
DWIDTH 8 0
BBX 8 15 0 -3
BITMAP
10
10
10
10
10
10
10
F0
00
00
00
00
00
00
00
ENDCHAR
STARTCHAR box drawing upper right corner
ENCODING 12
SWIDTH 512 0
DWIDTH 8 0
BBX 8 15 0 -3
BITMAP
00
00
00
00
00
00
00
F0
10
10
10
10
10
10
10
ENDCHAR
STARTCHAR box drawing upper left corner
ENCODING 13
SWIDTH 512 0
DWIDTH 8 0
BBX 8 15 0 -3
BITMAP
00
00
00
00
00
00
00
1F
10
10
10
10
10
10
10
ENDCHAR
STARTCHAR box drawing lower left corner
ENCODING 14
SWIDTH 512 0
DWIDTH 8 0
BBX 8 15 0 -3
BITMAP
10
10
10
10
10
10
10
1F
00
00
00
00
00
00
00
ENDCHAR
STARTCHAR box drawing cross
ENCODING 15
SWIDTH 512 0
DWIDTH 8 0
BBX 8 15 0 -3
BITMAP
10
10
10
10
10
10
10
FF
10
10
10
10
10
10
10
ENDCHAR
STARTCHAR box drawing horizontal line high
ENCODING 16
SWIDTH 512 0
DWIDTH 8 0
BBX 8 15 0 -3
BITMAP
00
FF
00
00
00
00
00
00
00
00
00
00
00
00
00
ENDCHAR
STARTCHAR box drawing horizontal line medium high
ENCODING 17
SWIDTH 512 0
DWIDTH 8 0
BBX 8 15 0 -3
BITMAP
00
00
00
00
FF
00
00
00
00
00
00
00
00
00
00
ENDCHAR
STARTCHAR box drawing horizontal line middle
ENCODING 18
SWIDTH 512 0
DWIDTH 8 0
BBX 8 15 0 -3
BITMAP
00
00
00
00
00
00
00
FF
00
00
00
00
00
00
00
ENDCHAR
STARTCHAR box drawing horizontal line medium low
ENCODING 19
SWIDTH 512 0
DWIDTH 8 0
BBX 8 15 0 -3
BITMAP
00
00
00
00
00
00
00
00
00
00
FF
00
00
00
00
ENDCHAR
STARTCHAR box drawing horizontal line low
ENCODING 20
SWIDTH 512 0
DWIDTH 8 0
BBX 8 15 0 -3
BITMAP
00
00
00
00
00
00
00
00
00
00
00
00
00
FF
00
ENDCHAR
STARTCHAR box drawing left tee
ENCODING 21
SWIDTH 512 0
DWIDTH 8 0
BBX 8 15 0 -3
BITMAP
10
10
10
10
10
10
10
1F
10
10
10
10
10
10
10
ENDCHAR
STARTCHAR box drawing right tee
ENCODING 22
SWIDTH 512 0
DWIDTH 8 0
BBX 8 15 0 -3
BITMAP
10
10
10
10
10
10
10
F0
10
10
10
10
10
10
10
ENDCHAR
STARTCHAR box drawing lower tee
ENCODING 23
SWIDTH 512 0
DWIDTH 8 0
BBX 8 15 0 -3
BITMAP
10
10
10
10
10
10
10
FF
00
00
00
00
00
00
00
ENDCHAR
STARTCHAR box drawing upper tee
ENCODING 24
SWIDTH 512 0
DWIDTH 8 0
BBX 8 15 0 -3
BITMAP
00
00
00
00
00
00
00
FF
10
10
10
10
10
10
10
ENDCHAR
STARTCHAR box drawing vertical line
ENCODING 25
SWIDTH 512 0
DWIDTH 8 0
BBX 8 15 0 -3
BITMAP
10
10
10
10
10
10
10
10
10
10
10
10
10
10
10
ENDCHAR
STARTCHAR less-than-or-equal sign
ENCODING 26
SWIDTH 512 0
DWIDTH 8 0
BBX 8 15 0 -3
BITMAP
00
00
04
08
10
20
40
20
10
08
04
00
7E
00
00
ENDCHAR
STARTCHAR greater-than-or-equal sign
ENCODING 27
SWIDTH 512 0
DWIDTH 8 0
BBX 8 15 0 -3
BITMAP
00
00
20
10
08
04
02
04
08
10
20
00
7E
00
00
ENDCHAR
STARTCHAR greek small letter pi
ENCODING 28
SWIDTH 512 0
DWIDTH 8 0
BBX 8 15 0 -3
BITMAP
00
00
00
00
00
7E
24
24
24
24
24
22
00
00
00
ENDCHAR
STARTCHAR not-equal sign
ENCODING 29
SWIDTH 512 0
DWIDTH 8 0
BBX 8 15 0 -3
BITMAP
00
00
00
00
02
04
7E
08
10
7E
20
40
00
00
00
ENDCHAR
STARTCHAR pound sign
ENCODING 30
SWIDTH 512 0
DWIDTH 8 0
BBX 8 15 0 -3
BITMAP
00
00
1C
32
20
20
20
78
20
20
20
7E
00
00
00
ENDCHAR
STARTCHAR middle dot
ENCODING 31
SWIDTH 512 0
DWIDTH 8 0
BBX 8 15 0 -3
BITMAP
00
00
00
00
00
00
10
38
10
00
00
00
00
00
00
ENDCHAR
STARTCHAR U+0020 space
ENCODING 32
SWIDTH 512 0
DWIDTH 8 0
BBX 8 15 0 -3
BITMAP
00
00
00
00
00
00
00
00
00
00
00
00
00
00
00
ENDCHAR
STARTCHAR U+0021 exclamation mark
ENCODING 33
SWIDTH 512 0
DWIDTH 8 0
BBX 8 15 0 -3
BITMAP
00
00
10
10
10
10
10
10
10
00
10
10
00
00
00
ENDCHAR
STARTCHAR U+0022 quotation mark
ENCODING 34
SWIDTH 512 0
DWIDTH 8 0
BBX 8 15 0 -3
BITMAP
00
00
28
28
28
28
00
00
00
00
00
00
00
00
00
ENDCHAR
STARTCHAR U+0023 number sign
ENCODING 35
SWIDTH 512 0
DWIDTH 8 0
BBX 8 15 0 -3
BITMAP
00
00
00
24
24
7E
24
24
7E
24
24
00
00
00
00
ENDCHAR
STARTCHAR U+0024 dollar sign
ENCODING 36
SWIDTH 512 0
DWIDTH 8 0
BBX 8 15 0 -3
BITMAP
00
00
00
10
3C
50
50
38
14
14
78
10
00
00
00
ENDCHAR
STARTCHAR U+0025 percent sign
ENCODING 37
SWIDTH 512 0
DWIDTH 8 0
BBX 8 15 0 -3
BITMAP
00
00
22
52
54
28
08
10
14
2A
4A
44
00
00
00
ENDCHAR
ENDFONT
